<mxfile host="app.diagrams.net" agent="Mozilla/5.0 (Windows NT 10.0; Win64; x64) AppleWebKit/537.36 (KHTML, like Gecko) Chrome/127.0.0.0 Safari/537.36" version="24.7.6">
  <diagram name="Page-1" id="y9GBdRn95pJowuykxrae">
    <mxGraphModel dx="750" dy="410" grid="1" gridSize="10" guides="1" tooltips="1" connect="1" arrows="1" fold="1" page="1" pageScale="1" pageWidth="1169" pageHeight="827" math="0" shadow="0">
      <root>
        <mxCell id="0" />
        <mxCell id="1" parent="0" />
        <mxCell id="NDvf0oDrRcwOg9ICF0X1-3" value="&lt;b&gt;Chef de stocks&lt;/b&gt;" style="shape=umlActor;verticalLabelPosition=bottom;verticalAlign=top;html=1;outlineConnect=0;" vertex="1" parent="1">
          <mxGeometry x="30" y="405" width="30" height="60" as="geometry" />
        </mxCell>
        <mxCell id="NDvf0oDrRcwOg9ICF0X1-6" value="" style="shape=umlFrame;whiteSpace=wrap;html=1;pointerEvents=0;" vertex="1" parent="1">
          <mxGeometry x="120" y="30" width="920" height="810" as="geometry" />
        </mxCell>
        <mxCell id="NDvf0oDrRcwOg9ICF0X1-14" value="&lt;b&gt;S&#39;authentifier&lt;/b&gt;" style="strokeWidth=2;html=1;shape=mxgraph.flowchart.start_1;whiteSpace=wrap;" vertex="1" parent="1">
          <mxGeometry x="875" y="389" width="135" height="50" as="geometry" />
        </mxCell>
        <mxCell id="NDvf0oDrRcwOg9ICF0X1-23" value="&lt;b&gt;Consulter les fichiers de rapport (PDF)&lt;/b&gt;" style="strokeWidth=2;html=1;shape=mxgraph.flowchart.start_1;whiteSpace=wrap;" vertex="1" parent="1">
          <mxGeometry x="360" y="560" width="210" height="60" as="geometry" />
        </mxCell>
        <mxCell id="NDvf0oDrRcwOg9ICF0X1-24" value="&lt;b&gt;Gérer AI model&lt;/b&gt;" style="strokeWidth=2;html=1;shape=mxgraph.flowchart.start_1;whiteSpace=wrap;" vertex="1" parent="1">
          <mxGeometry x="215" y="340" width="180" height="50" as="geometry" />
        </mxCell>
        <mxCell id="NDvf0oDrRcwOg9ICF0X1-25" value="&lt;b&gt;Gérer les stocks&lt;/b&gt;" style="strokeWidth=2;html=1;shape=mxgraph.flowchart.start_1;whiteSpace=wrap;" vertex="1" parent="1">
          <mxGeometry x="220" y="180" width="170" height="50" as="geometry" />
        </mxCell>
        <mxCell id="NDvf0oDrRcwOg9ICF0X1-33" style="rounded=0;orthogonalLoop=1;jettySize=auto;html=1;exitX=0.5;exitY=0.5;exitDx=0;exitDy=0;exitPerimeter=0;endArrow=none;endFill=0;entryX=0;entryY=0.5;entryDx=0;entryDy=0;entryPerimeter=0;" edge="1" parent="1" source="NDvf0oDrRcwOg9ICF0X1-3" target="NDvf0oDrRcwOg9ICF0X1-25">
          <mxGeometry relative="1" as="geometry">
            <mxPoint x="540" y="250" as="targetPoint" />
          </mxGeometry>
        </mxCell>
        <mxCell id="NDvf0oDrRcwOg9ICF0X1-34" style="rounded=0;orthogonalLoop=1;jettySize=auto;html=1;exitX=0.5;exitY=0.5;exitDx=0;exitDy=0;exitPerimeter=0;endArrow=none;endFill=0;entryX=0;entryY=0.5;entryDx=0;entryDy=0;entryPerimeter=0;" edge="1" parent="1" source="NDvf0oDrRcwOg9ICF0X1-3" target="NDvf0oDrRcwOg9ICF0X1-24">
          <mxGeometry relative="1" as="geometry">
            <mxPoint x="540" y="335" as="targetPoint" />
          </mxGeometry>
        </mxCell>
        <mxCell id="NDvf0oDrRcwOg9ICF0X1-35" style="rounded=0;orthogonalLoop=1;jettySize=auto;html=1;exitX=0.5;exitY=0.5;exitDx=0;exitDy=0;exitPerimeter=0;endArrow=none;endFill=0;entryX=0;entryY=0.5;entryDx=0;entryDy=0;entryPerimeter=0;" edge="1" parent="1" source="NDvf0oDrRcwOg9ICF0X1-3" target="NDvf0oDrRcwOg9ICF0X1-23">
          <mxGeometry relative="1" as="geometry">
            <mxPoint x="530" y="430" as="targetPoint" />
          </mxGeometry>
        </mxCell>
        <mxCell id="NDvf0oDrRcwOg9ICF0X1-39" style="rounded=0;orthogonalLoop=1;jettySize=auto;html=1;exitX=1;exitY=0.5;exitDx=0;exitDy=0;entryX=0.145;entryY=0.145;entryDx=0;entryDy=0;entryPerimeter=0;endArrow=open;endFill=0;dashed=1;exitPerimeter=0;" edge="1" parent="1" source="NDvf0oDrRcwOg9ICF0X1-62" target="NDvf0oDrRcwOg9ICF0X1-14">
          <mxGeometry relative="1" as="geometry" />
        </mxCell>
        <mxCell id="NDvf0oDrRcwOg9ICF0X1-40" style="rounded=0;orthogonalLoop=1;jettySize=auto;html=1;entryX=0;entryY=0.5;entryDx=0;entryDy=0;entryPerimeter=0;endArrow=open;endFill=0;dashed=1;exitX=1;exitY=0.5;exitDx=0;exitDy=0;exitPerimeter=0;" edge="1" parent="1" source="NDvf0oDrRcwOg9ICF0X1-72" target="NDvf0oDrRcwOg9ICF0X1-14">
          <mxGeometry relative="1" as="geometry" />
        </mxCell>
        <mxCell id="NDvf0oDrRcwOg9ICF0X1-41" style="rounded=0;orthogonalLoop=1;jettySize=auto;html=1;entryX=0.145;entryY=0.855;entryDx=0;entryDy=0;entryPerimeter=0;endArrow=open;endFill=0;dashed=1;exitX=0.986;exitY=0.343;exitDx=0;exitDy=0;exitPerimeter=0;" edge="1" parent="1" source="NDvf0oDrRcwOg9ICF0X1-23" target="NDvf0oDrRcwOg9ICF0X1-14">
          <mxGeometry relative="1" as="geometry">
            <mxPoint x="750" y="430" as="sourcePoint" />
          </mxGeometry>
        </mxCell>
        <mxCell id="NDvf0oDrRcwOg9ICF0X1-48" value="&lt;font style=&quot;font-size: 10px;&quot;&gt;&amp;lt;&amp;lt;include&amp;gt;&amp;gt;&lt;/font&gt;" style="text;strokeColor=none;align=center;fillColor=none;html=1;verticalAlign=middle;whiteSpace=wrap;rounded=0;" vertex="1" parent="1">
          <mxGeometry x="730" y="280" width="90" height="30" as="geometry" />
        </mxCell>
        <mxCell id="NDvf0oDrRcwOg9ICF0X1-54" value="&lt;font style=&quot;font-size: 10px;&quot;&gt;&amp;lt;&amp;lt;include&amp;gt;&amp;gt;&lt;/font&gt;" style="text;strokeColor=none;align=center;fillColor=none;html=1;verticalAlign=middle;whiteSpace=wrap;rounded=0;" vertex="1" parent="1">
          <mxGeometry x="760" y="190" width="90" height="30" as="geometry" />
        </mxCell>
        <mxCell id="NDvf0oDrRcwOg9ICF0X1-55" value="&lt;font style=&quot;font-size: 10px;&quot;&gt;&amp;lt;&amp;lt;include&amp;gt;&amp;gt;&lt;/font&gt;" style="text;strokeColor=none;align=center;fillColor=none;html=1;verticalAlign=middle;whiteSpace=wrap;rounded=0;" vertex="1" parent="1">
          <mxGeometry x="830" y="540" width="90" height="30" as="geometry" />
        </mxCell>
        <mxCell id="NDvf0oDrRcwOg9ICF0X1-62" value="&lt;b&gt;Consulter les statistiques&lt;/b&gt;" style="strokeWidth=2;html=1;shape=mxgraph.flowchart.start_1;whiteSpace=wrap;" vertex="1" parent="1">
          <mxGeometry x="540" y="100" width="168" height="50" as="geometry" />
        </mxCell>
        <mxCell id="NDvf0oDrRcwOg9ICF0X1-63" style="rounded=0;orthogonalLoop=1;jettySize=auto;html=1;exitX=0;exitY=0.5;exitDx=0;exitDy=0;exitPerimeter=0;entryX=0.991;entryY=0.274;entryDx=0;entryDy=0;endArrow=block;endFill=0;elbow=vertical;entryPerimeter=0;" edge="1" parent="1" source="NDvf0oDrRcwOg9ICF0X1-62" target="NDvf0oDrRcwOg9ICF0X1-25">
          <mxGeometry relative="1" as="geometry" />
        </mxCell>
        <mxCell id="NDvf0oDrRcwOg9ICF0X1-65" value="&lt;b&gt;Gérer son profil&lt;/b&gt;" style="strokeWidth=2;html=1;shape=mxgraph.flowchart.start_1;whiteSpace=wrap;" vertex="1" parent="1">
          <mxGeometry x="210" y="690" width="170" height="50" as="geometry" />
        </mxCell>
        <mxCell id="NDvf0oDrRcwOg9ICF0X1-66" style="rounded=0;orthogonalLoop=1;jettySize=auto;html=1;exitX=0;exitY=0.5;exitDx=0;exitDy=0;exitPerimeter=0;entryX=0.5;entryY=0.5;entryDx=0;entryDy=0;entryPerimeter=0;endArrow=none;endFill=0;" edge="1" parent="1" source="NDvf0oDrRcwOg9ICF0X1-65" target="NDvf0oDrRcwOg9ICF0X1-3">
          <mxGeometry relative="1" as="geometry" />
        </mxCell>
        <mxCell id="NDvf0oDrRcwOg9ICF0X1-67" value="&lt;b&gt;Modifier les informations du profil&lt;/b&gt;" style="strokeWidth=2;html=1;shape=mxgraph.flowchart.start_1;whiteSpace=wrap;" vertex="1" parent="1">
          <mxGeometry x="546" y="680" width="170" height="70" as="geometry" />
        </mxCell>
        <mxCell id="NDvf0oDrRcwOg9ICF0X1-68" style="rounded=0;orthogonalLoop=1;jettySize=auto;html=1;entryX=0.298;entryY=1.023;entryDx=0;entryDy=0;entryPerimeter=0;endArrow=open;endFill=0;dashed=1;exitX=1;exitY=0.5;exitDx=0;exitDy=0;exitPerimeter=0;" edge="1" parent="1" source="NDvf0oDrRcwOg9ICF0X1-67" target="NDvf0oDrRcwOg9ICF0X1-14">
          <mxGeometry relative="1" as="geometry">
            <mxPoint x="790" y="640" as="sourcePoint" />
            <mxPoint x="1267" y="550" as="targetPoint" />
          </mxGeometry>
        </mxCell>
        <mxCell id="NDvf0oDrRcwOg9ICF0X1-70" style="edgeStyle=orthogonalEdgeStyle;rounded=0;orthogonalLoop=1;jettySize=auto;html=1;exitX=0;exitY=0.5;exitDx=0;exitDy=0;exitPerimeter=0;entryX=1;entryY=0.5;entryDx=0;entryDy=0;entryPerimeter=0;endArrow=block;endFill=0;" edge="1" parent="1" source="NDvf0oDrRcwOg9ICF0X1-67" target="NDvf0oDrRcwOg9ICF0X1-65">
          <mxGeometry relative="1" as="geometry" />
        </mxCell>
        <mxCell id="NDvf0oDrRcwOg9ICF0X1-72" value="&lt;b&gt;Initiliser Model&lt;/b&gt;" style="strokeWidth=2;html=1;shape=mxgraph.flowchart.start_1;whiteSpace=wrap;" vertex="1" parent="1">
          <mxGeometry x="546" y="320" width="170" height="50" as="geometry" />
        </mxCell>
        <mxCell id="NDvf0oDrRcwOg9ICF0X1-75" style="rounded=0;orthogonalLoop=1;jettySize=auto;html=1;exitX=0;exitY=0.5;exitDx=0;exitDy=0;exitPerimeter=0;entryX=0.947;entryY=0.274;entryDx=0;entryDy=0;entryPerimeter=0;endArrow=block;endFill=0;" edge="1" parent="1" source="NDvf0oDrRcwOg9ICF0X1-72" target="NDvf0oDrRcwOg9ICF0X1-24">
          <mxGeometry relative="1" as="geometry" />
        </mxCell>
        <mxCell id="NDvf0oDrRcwOg9ICF0X1-76" value="&lt;b&gt;Ajouter des données&lt;/b&gt;" style="strokeWidth=2;html=1;shape=mxgraph.flowchart.start_1;whiteSpace=wrap;" vertex="1" parent="1">
          <mxGeometry x="544" y="429" width="170" height="50" as="geometry" />
        </mxCell>
        <mxCell id="NDvf0oDrRcwOg9ICF0X1-77" style="rounded=0;orthogonalLoop=1;jettySize=auto;html=1;exitX=0;exitY=0.5;exitDx=0;exitDy=0;exitPerimeter=0;entryX=0.972;entryY=0.777;entryDx=0;entryDy=0;entryPerimeter=0;endArrow=block;endFill=0;" edge="1" parent="1" source="NDvf0oDrRcwOg9ICF0X1-76" target="NDvf0oDrRcwOg9ICF0X1-24">
          <mxGeometry relative="1" as="geometry">
            <mxPoint x="460" y="395" as="sourcePoint" />
          </mxGeometry>
        </mxCell>
        <mxCell id="NDvf0oDrRcwOg9ICF0X1-78" style="rounded=0;orthogonalLoop=1;jettySize=auto;html=1;entryX=0.076;entryY=0.731;entryDx=0;entryDy=0;entryPerimeter=0;endArrow=open;endFill=0;dashed=1;exitX=1;exitY=0.5;exitDx=0;exitDy=0;exitPerimeter=0;" edge="1" parent="1" source="NDvf0oDrRcwOg9ICF0X1-76" target="NDvf0oDrRcwOg9ICF0X1-14">
          <mxGeometry relative="1" as="geometry">
            <mxPoint x="760" y="355" as="sourcePoint" />
            <mxPoint x="990" y="355" as="targetPoint" />
          </mxGeometry>
        </mxCell>
        <mxCell id="NDvf0oDrRcwOg9ICF0X1-79" value="&lt;font style=&quot;font-size: 10px;&quot;&gt;&amp;lt;&amp;lt;include&amp;gt;&amp;gt;&lt;/font&gt;" style="text;strokeColor=none;align=center;fillColor=none;html=1;verticalAlign=middle;whiteSpace=wrap;rounded=0;" vertex="1" parent="1">
          <mxGeometry x="760" y="399" width="90" height="30" as="geometry" />
        </mxCell>
        <mxCell id="NDvf0oDrRcwOg9ICF0X1-80" value="&lt;font style=&quot;font-size: 10px;&quot;&gt;&amp;lt;&amp;lt;include&amp;gt;&amp;gt;&lt;/font&gt;" style="text;strokeColor=none;align=center;fillColor=none;html=1;verticalAlign=middle;whiteSpace=wrap;rounded=0;" vertex="1" parent="1">
          <mxGeometry x="585" y="520" width="90" height="30" as="geometry" />
        </mxCell>
        <mxCell id="NDvf0oDrRcwOg9ICF0X1-81" value="&lt;b&gt;Fixer les zones&lt;/b&gt;" style="strokeWidth=2;html=1;shape=mxgraph.flowchart.start_1;whiteSpace=wrap;" vertex="1" parent="1">
          <mxGeometry x="545" y="220" width="168" height="50" as="geometry" />
        </mxCell>
        <mxCell id="NDvf0oDrRcwOg9ICF0X1-82" style="rounded=0;orthogonalLoop=1;jettySize=auto;html=1;exitX=0;exitY=0.5;exitDx=0;exitDy=0;exitPerimeter=0;entryX=1;entryY=0.5;entryDx=0;entryDy=0;entryPerimeter=0;endArrow=block;endFill=0;" edge="1" parent="1" source="NDvf0oDrRcwOg9ICF0X1-81" target="NDvf0oDrRcwOg9ICF0X1-25">
          <mxGeometry relative="1" as="geometry" />
        </mxCell>
        <mxCell id="NDvf0oDrRcwOg9ICF0X1-83" style="rounded=0;orthogonalLoop=1;jettySize=auto;html=1;exitX=0.952;exitY=0.6;exitDx=0;exitDy=0;entryX=0.055;entryY=0.274;entryDx=0;entryDy=0;entryPerimeter=0;endArrow=open;endFill=0;dashed=1;exitPerimeter=0;" edge="1" parent="1" source="NDvf0oDrRcwOg9ICF0X1-81" target="NDvf0oDrRcwOg9ICF0X1-14">
          <mxGeometry relative="1" as="geometry">
            <mxPoint x="750" y="210" as="sourcePoint" />
            <mxPoint x="886" y="412" as="targetPoint" />
          </mxGeometry>
        </mxCell>
        <mxCell id="NDvf0oDrRcwOg9ICF0X1-86" value="&lt;font style=&quot;font-size: 10px;&quot;&gt;&amp;lt;&amp;lt;include&amp;gt;&amp;gt;&lt;/font&gt;" style="text;strokeColor=none;align=center;fillColor=none;html=1;verticalAlign=middle;whiteSpace=wrap;rounded=0;" vertex="1" parent="1">
          <mxGeometry x="720" y="340" width="90" height="30" as="geometry" />
        </mxCell>
      </root>
    </mxGraphModel>
  </diagram>
</mxfile>
